# xmcd CD database file
# Copyright (C) 1997 Ti Kan
# 
# Track frame offsets:
#     182
#     13935
#     37087
#     49985
#     66075
#     112260
#     124617
#     137700
#     162755
#     182440
#     206912
#     219812
#     242982
#     252322
#     281317
#     305472
# 
# Disc length: 4357 seconds
# 
# Revision: 2
# Processed by: cddbd v1.4b41PL1 Copyright (c) Steve Scherf et al.
# Submitted via: DiscPlay 4.0.4
# 
DISCID=ee110310
DTITLE=John Lee Hooker - The Best Of John Lee Hooker
DYEAR=1900
DGENRE=
TTITLE0=One Bourbon, One Scotch, One Beer
TTITLE1=Decoration Day
TTITLE2=Back Biters And Syndicators
TTITLE3=Doin' The Shout
TTITLE4=Never Get Out Of These Blues Alive
TTITLE5=I'm In The Mood
TTITLE6=Mr. Lucky
TTITLE7=I'm Bad Like Jesse James
TTITLE8=Shake It Baby
TTITLE9=Bluebird
TTITLE10=The Motor City Is Burning
TTITLE11=It Serves You Right To Suffer
TTITLE12=Think Twice Before You Go
TTITLE13=House Rent Boogie
TTITLE14=The Waterfront
TTITLE15=Bang, Bang, Bang, Bang
EXTD=
EXTT0=
EXTT1=
EXTT2=
EXTT3=
EXTT4=
EXTT5=
EXTT6=
EXTT7=
EXTT8=
EXTT9=
EXTT10=
EXTT11=
EXTT12=
EXTT13=
EXTT14=
EXTT15=
PLAYORDER=
